<svg id="add" data-name="add" xmlns="http://www.w3.org/2000/svg" width="69.441" height="69.441" viewBox="0 0 69.441 69.441">
  <g id="Path_206" data-name="Path 206" transform="translate(0 0)" fill="none">
    <path d="M34.72,0A34.72,34.72,0,1,1,0,34.72,34.72,34.72,0,0,1,34.72,0Z" stroke="none"/>
    <path d="M 34.720458984375 3 C 30.43690490722656 3 26.2830696105957 3.838272094726562 22.37435150146484 5.491519927978516 C 18.59745788574219 7.089015960693359 15.2048225402832 9.376590728759766 12.29070663452148 12.29071044921875 C 9.3765869140625 15.20483779907227 7.089012145996094 18.59746170043945 5.49151611328125 22.37435531616211 C 3.838272094726562 26.28308486938477 3 30.43692016601562 3 34.72048568725586 C 3 39.00403594970703 3.838272094726562 43.15787506103516 5.49151611328125 47.06660461425781 C 7.089012145996094 50.84349822998047 9.3765869140625 54.23613357543945 12.29070663452148 57.15024948120117 C 15.204833984375 60.06438064575195 18.59745788574219 62.35195541381836 22.37435150146484 63.9494514465332 C 26.2830696105957 65.60269927978516 30.43690490722656 66.44097137451172 34.720458984375 66.44097137451172 C 39.00401306152344 66.44097137451172 43.15784454345703 65.60269927978516 47.06656646728516 63.9494514465332 C 50.84346008300781 62.35195541381836 54.236083984375 60.06438064575195 57.15021133422852 57.15024948120117 C 60.0643310546875 54.23613357543945 62.35190582275391 50.84349822998047 63.94940185546875 47.06660461425781 C 65.60264587402344 43.15787506103516 66.44091796875 39.00403594970703 66.44091796875 34.72048568725586 C 66.44091796875 30.43692016601562 65.60264587402344 26.28308486938477 63.94940185546875 22.37435531616211 C 62.35190582275391 18.59746170043945 60.0643310546875 15.20483779907227 57.15021133422852 12.29071044921875 C 54.2360954284668 9.376590728759766 50.84346008300781 7.089015960693359 47.06656646728516 5.491519927978516 C 43.15784454345703 3.838272094726562 39.00401306152344 3 34.720458984375 3 M 34.720458984375 0 C 53.89603424072266 0 69.44091796875 15.54488754272461 69.44091796875 34.72048568725586 C 69.44091796875 53.89607238769531 53.89603424072266 69.44097137451172 34.720458984375 69.44097137451172 C 15.54488372802734 69.44097137451172 0 53.89607238769531 0 34.72048568725586 C 0 15.54488754272461 15.54488372802734 0 34.720458984375 0 Z" stroke="none" fill="#ebdede"/>
  </g>
  <g id="plus-sign-in-a-black-circle" transform="translate(18.48 19.153)">
    <path id="Path_142" data-name="Path 142" d="M29.432,7.856a15.707,15.707,0,0,0-5.74-5.74A15.429,15.429,0,0,0,15.774,0,15.429,15.429,0,0,0,7.856,2.115a15.7,15.7,0,0,0-5.741,5.74A15.429,15.429,0,0,0,0,15.773a15.432,15.432,0,0,0,2.115,7.917,15.707,15.707,0,0,0,5.74,5.74,15.43,15.43,0,0,0,7.918,2.115,15.431,15.431,0,0,0,7.918-2.115,15.7,15.7,0,0,0,5.74-5.74,15.432,15.432,0,0,0,2.115-7.917A15.432,15.432,0,0,0,29.432,7.856Zm-4.457,9.232A1.334,1.334,0,0,1,23.66,18.4H18.4V23.66a1.333,1.333,0,0,1-1.315,1.315H14.459a1.332,1.332,0,0,1-1.314-1.315V18.4H7.887a1.333,1.333,0,0,1-1.314-1.315V14.459a1.333,1.333,0,0,1,1.314-1.314h5.258V7.886a1.333,1.333,0,0,1,1.314-1.314h2.629A1.333,1.333,0,0,1,18.4,7.886v5.258H23.66a1.333,1.333,0,0,1,1.315,1.314Z" transform="translate(0 0)" fill="#f7f7f7"/>
  </g>
</svg>
