<svg id="plus-sign-in-a-black-circle" xmlns="http://www.w3.org/2000/svg" width="20" height="20"
    viewBox="0 0 11.793 11.794">
    <path id="Path_142" data-name="Path 142"
        d="M11,2.937A5.872,5.872,0,0,0,8.857.791,5.768,5.768,0,0,0,5.9,0a5.768,5.768,0,0,0-2.96.791A5.871,5.871,0,0,0,.791,2.937,5.768,5.768,0,0,0,0,5.9a5.769,5.769,0,0,0,.791,2.96A5.872,5.872,0,0,0,2.937,11a5.769,5.769,0,0,0,2.96.791A5.769,5.769,0,0,0,8.857,11,5.87,5.87,0,0,0,11,8.857a5.769,5.769,0,0,0,.791-2.96A5.769,5.769,0,0,0,11,2.937ZM9.337,6.388a.5.5,0,0,1-.491.491H6.88V8.845a.5.5,0,0,1-.491.491H5.405a.5.5,0,0,1-.491-.491V6.88H2.948a.5.5,0,0,1-.491-.491V5.405a.5.5,0,0,1,.491-.491H4.914V2.948a.5.5,0,0,1,.491-.491h.983a.5.5,0,0,1,.491.491V4.914H8.845a.5.5,0,0,1,.491.491Z"
        transform="translate(0 0)" fill="" />
</svg>
