<svg xmlns="http://www.w3.org/2000/svg" width="25" height="25" viewBox="0 0 30 30">
    <path id="Path_225" data-name="Path 225"
        d="M27.989,7.471A14.937,14.937,0,0,0,22.53,2.012,14.673,14.673,0,0,0,15,0,14.673,14.673,0,0,0,7.471,2.012,14.933,14.933,0,0,0,2.012,7.471,14.672,14.672,0,0,0,0,15a14.675,14.675,0,0,0,2.012,7.529,14.937,14.937,0,0,0,5.459,5.459A14.674,14.674,0,0,0,15,30a14.674,14.674,0,0,0,7.53-2.012,14.933,14.933,0,0,0,5.459-5.459A14.675,14.675,0,0,0,30,15,14.676,14.676,0,0,0,27.989,7.471ZM23.751,16.25A1.268,1.268,0,0,1,22.5,17.5h-5v5a1.267,1.267,0,0,1-1.25,1.25h-2.5A1.267,1.267,0,0,1,12.5,22.5v-5h-5a1.268,1.268,0,0,1-1.25-1.25v-2.5A1.267,1.267,0,0,1,7.5,12.5h5v-5a1.268,1.268,0,0,1,1.25-1.25h2.5A1.268,1.268,0,0,1,17.5,7.5v5h5a1.268,1.268,0,0,1,1.25,1.25Z"
        fill="blue" />
</svg>
