<svg id="Group_396" data-name="Group 396" xmlns="http://www.w3.org/2000/svg" width="22.432" height="22.432" viewBox="0 0 22.432 22.432">
  <ellipse id="Ellipse_3" data-name="Ellipse 3" cx="11.216" cy="11.216" rx="11.216" ry="11.216" transform="translate(0 0)" fill="blue"/>
  <g id="plus-sign-in-a-black-circle" transform="translate(5.97 6.187)">
    <path id="Path_142" data-name="Path 142" d="M9.507,2.538A5.074,5.074,0,0,0,7.653.683,4.984,4.984,0,0,0,5.1,0,4.984,4.984,0,0,0,2.538.683,5.073,5.073,0,0,0,.683,2.538,4.984,4.984,0,0,0,0,5.1,4.985,4.985,0,0,0,.683,7.653,5.074,5.074,0,0,0,2.538,9.507a4.985,4.985,0,0,0,2.558.683,4.985,4.985,0,0,0,2.558-.683A5.073,5.073,0,0,0,9.507,7.653,4.985,4.985,0,0,0,10.19,5.1,4.985,4.985,0,0,0,9.507,2.538ZM8.068,5.52a.431.431,0,0,1-.425.425h-1.7v1.7a.431.431,0,0,1-.425.425H4.671a.43.43,0,0,1-.425-.425v-1.7h-1.7a.431.431,0,0,1-.425-.425V4.671a.431.431,0,0,1,.425-.425h1.7v-1.7a.431.431,0,0,1,.425-.425H5.52a.431.431,0,0,1,.425.425v1.7h1.7a.431.431,0,0,1,.425.425Z" transform="translate(0 0)" fill="#f7f7f7"/>
  </g>
</svg>
