<svg id="Layer_1" data-name="Layer 1" xmlns="http://www.w3.org/2000/svg" xmlns:xlink="http://www.w3.org/1999/xlink" viewBox="0 0 40 40"><defs><style>.cls-1{fill:none;}.cls-2{fill:blue;}.cls-3{clip-path:url(#clip-path);}.cls-4{fill:#fff;}</style><clipPath id="clip-path"><rect class="cls-1" x="10.2" y="9.02" width="18.09" height="17.56"/></clipPath></defs><title>blueadd</title><g id="Group_675" data-name="Group 675"><path id="bg-2" class="cls-2" d="M20,1.7h0C30.41,1.7,38.84,9.9,38.84,20h0c0,10.1-8.43,18.3-18.84,18.3h0C9.59,38.3,1.16,30.1,1.16,20h0C1.16,9.9,9.59,1.7,20,1.7Z"/><g class="cls-3"><g id="icon_add" data-name="icon add"><rect id="bg-3" class="cls-1" x="10.2" y="10.46" width="16.58" height="16.1"/><path id="union" class="cls-4" d="M19.47,25.29V20.53h-4.9A.56.56,0,0,1,14,20a.57.57,0,0,1,.57-.55h4.9V14.68a.57.57,0,0,1,1.13,0v4.75h4.9a.56.56,0,0,1,.56.55.55.55,0,0,1-.56.55H20.6v4.76a.57.57,0,0,1-1.13,0Z"/></g></g></g></svg>