<svg xmlns="http://www.w3.org/2000/svg" width="12.317" height="12.317" viewBox="0 0 12.317 12.317">
  <path id="path" d="M5.224,15.805a1,1,0,0,0,1.288,1.288l1.847-.448a5.988,5.988,0,0,0,2.8.672,6.119,6.119,0,1,0-5.486-3.331l-.448,1.82Zm1.6-1.764a.559.559,0,0,0-.056-.42,5.04,5.04,0,1,1,1.931,1.931.543.543,0,0,0-.42-.056l-1.959.476.5-1.931ZM13.678,10.6a.56.56,0,0,0,0-1.12H8.639a.56.56,0,0,0,0,1.12Zm0,2.239a.56.56,0,0,0,0-1.12H10.319a.56.56,0,1,0,0,1.12Z" transform="translate(-5 -5)" fill="blue"/>
</svg>
