<svg xmlns="http://www.w3.org/2000/svg" width="35" height="35" viewBox="0 0 31 31">
  <g id="contact-trace" data-name="contact trace" transform="translate(-0.252 -0.114)">
    <circle id="Ellipse_51" data-name="Ellipse 51" cx="15.5" cy="15.5" r="15.5" transform="translate(0.252 0.114)" fill="#0b24fa"/>
    <g id="Group_369" data-name="Group 369" transform="translate(6.447 7.389)">
      <g id="trace" transform="translate(0 0)">
        <g id="Group_362" data-name="Group 362" transform="translate(0 0)">
          <g id="Group_361" data-name="Group 361">
            <path id="Path_195" data-name="Path 195" d="M18.714,27.49a3.4,3.4,0,0,0-2.548-2.066,3.127,3.127,0,0,0-2,.345A6.421,6.421,0,0,0,5.7,35.032l-.7.7-.511-.511a.376.376,0,0,0-.531,0L2.371,36.811h0L.639,38.543a2.181,2.181,0,1,0,3.084,3.084l1.732-1.732,1.589-1.589a.376.376,0,0,0,0-.531l-.511-.511.7-.7a6.386,6.386,0,0,0,3.206,1.163,2.984,2.984,0,0,0,1.077,3.318,2.872,2.872,0,0,0,1.547.485,2.442,2.442,0,0,0,.6-.074,2.814,2.814,0,0,0,1.65-1.241,10.724,10.724,0,0,0,1.074-2.258.376.376,0,0,0-.231-.484l-1.893-.651a6.461,6.461,0,0,0,.975-.724l1.456.5a.375.375,0,0,0,.47-.212,16.059,16.059,0,0,1,.8-1.727l.05-.087a.373.373,0,0,0,.024-.041A9.139,9.139,0,0,0,19.2,30.924,6.653,6.653,0,0,0,18.714,27.49ZM16.04,26.164a2.7,2.7,0,0,1,1.992,1.64,4.7,4.7,0,0,1,.334,1.047l-.906.1a.388.388,0,0,1-.316-.109l-.5-.487A6.4,6.4,0,0,0,14.9,26.264,2.258,2.258,0,0,1,16.04,26.164ZM4.225,36.019l.511.511h0l.234.234L3.912,37.822l-.745-.745ZM3.191,41.1A1.429,1.429,0,1,1,1.17,39.074l1.466-1.466.745.745L2.735,39a.376.376,0,1,0,.531.531l.646-.646.745.745Zm2-2-.745-.745L5.5,37.3l.234.234.511.511ZM6,36.732l-.468-.468.64-.64a6.471,6.471,0,0,0,.468.468Zm9.542,1.325a9.2,9.2,0,0,1-.865,1.749,1.878,1.878,0,0,1-2.758.6c-1.022-.652-.869-2-.713-2.67l.046,0,.039,0,.133-.008h.016a6.36,6.36,0,0,0,1.877-.435ZM11.09,36.992h0l-.146,0h-.026a5.672,5.672,0,1,1,5.665-6.284c0,.013,0,.026,0,.039,0,.029.005.058.008.087s0,.055.007.082,0,.05,0,.076,0,.067,0,.1,0,.042,0,.063q0,.076,0,.153s0,.008,0,.012A5.679,5.679,0,0,1,11.09,36.992Zm5.513-1.22L15.82,35.5a6.4,6.4,0,0,0,.8-1.175l.266-.03a.389.389,0,0,1,.316.108l.023.022C17.017,34.814,16.8,35.313,16.6,35.773Zm1-2.014a1.136,1.136,0,0,0-.624-.212,6.379,6.379,0,0,0,.359-1.56l.367-.041a.39.39,0,0,1,.316.108l.17.167A8.526,8.526,0,0,1,17.6,33.758Zm.774-2.378a1.139,1.139,0,0,0-.755-.182l-.251.028c0-.026,0-.052,0-.079s0-.052,0-.077,0-.064,0-.1,0-.063-.006-.1,0-.049-.005-.073-.006-.074-.01-.111l-.005-.05q-.007-.066-.015-.131l0-.019a6.435,6.435,0,0,0-.159-.819,1.139,1.139,0,0,0,.389.023l.922-.1A7.519,7.519,0,0,1,18.372,31.381Z" transform="translate(0 -24.899)" fill="#fff"/>
          </g>
        </g>
        <g id="Group_364" data-name="Group 364" transform="translate(6.388 1.867)">
          <g id="Group_363" data-name="Group 363">
            <path id="Path_196" data-name="Path 196" d="M178.968,77.935q-.016-.056-.033-.112l0-.015-.007-.022-.01-.032-.014-.043v0q-.043-.128-.093-.252l0-.012a4.512,4.512,0,0,0-.874-1.382l-.026-.028-.074-.077-.082-.081-.027-.026a4.539,4.539,0,0,0-1.508-.951h0l-.1-.037-.121-.042-.022-.007a4.514,4.514,0,0,0-2.37-.107h-.005l-.1.023-.017,0-.112.03a4.554,4.554,0,0,0,1.685,8.919h0l.016,0,.157-.02.042-.007.135-.023.048-.009.132-.028.045-.01c.057-.014.115-.028.172-.044a4.521,4.521,0,0,0,2.63-1.951q.06-.1.117-.195A4.524,4.524,0,0,0,178.968,77.935ZM173.6,82.666l0,.157a3.809,3.809,0,0,1-2.553-2.286q-.018-.045-.034-.09-.033-.091-.061-.184-.014-.047-.027-.094a3.8,3.8,0,0,1,3.625-4.819,11.991,11.991,0,0,0-.921,4.81C173.647,80.714,173.617,81.842,173.6,82.666Zm3.854-1.017a3.757,3.757,0,0,1-1.118.88,3.832,3.832,0,0,1-.735.288l-.122.031-.028.007-.115.025h-.007l-.13.024-.013,0-.118.017-.011,0-.7-.242c.015-.561.032-1.209.035-1.756l.272.266a1.325,1.325,0,0,0,1.075.37l1.2-.134a.578.578,0,0,1,.468.161l.054.053Zm.442-.629a1.326,1.326,0,0,0-1.042-.339l-1.2.134a.576.576,0,0,1-.468-.161l-.817-.8a11.491,11.491,0,0,1,.962-4.434,3.814,3.814,0,0,1,2.7,2.106l.007.015c.018.039.035.078.052.118l.016.04.017.044a1.334,1.334,0,0,0-.243,0l-1.05.057-.034-.016a.379.379,0,0,0-.07-.021.372.372,0,0,0-.147,0,.4.4,0,0,0-.07.021.381.381,0,0,0-.122.081.371.371,0,0,0-.082.122.379.379,0,0,0-.021.07.374.374,0,0,0-.007.074.378.378,0,0,0,.11.266.358.358,0,0,0,.057.047.382.382,0,0,0,.065.035.4.4,0,0,0,.07.021.379.379,0,0,0,.072.007.373.373,0,0,0,.2.045l1.082-.059.021,0a.576.576,0,0,1,.4.106A3.774,3.774,0,0,1,177.892,81.02Z" transform="translate(-170.025 -74.596)" fill="#fff"/>
          </g>
        </g>
        <g id="Group_366" data-name="Group 366" transform="translate(11.706 4.875)">
          <g id="Group_365" data-name="Group 365">
            <path id="Path_197" data-name="Path 197" d="M312.3,154.957a.376.376,0,0,0-.021-.07.4.4,0,0,0-.035-.065.421.421,0,0,0-.047-.057.38.38,0,0,0-.339-.1.376.376,0,0,0-.07.021.4.4,0,0,0-.065.035.4.4,0,0,0-.057.047.393.393,0,0,0-.047.057.4.4,0,0,0-.035.065.379.379,0,0,0-.029.144.37.37,0,0,0,.008.073.376.376,0,0,0,.021.07.384.384,0,0,0,.035.065.365.365,0,0,0,.1.1.4.4,0,0,0,.065.035.378.378,0,0,0,.07.021.374.374,0,0,0,.074.008.379.379,0,0,0,.266-.11.4.4,0,0,0,.047-.057.38.38,0,0,0,.035-.065.368.368,0,0,0,.021-.217Z" transform="translate(-311.557 -154.654)" fill="#fff"/>
          </g>
        </g>
        <g id="Group_368" data-name="Group 368" transform="translate(1.555 15.06)">
          <g id="Group_367" data-name="Group 367">
            <path id="Path_198" data-name="Path 198" d="M42.122,426.03a.394.394,0,0,0-.021-.07.38.38,0,0,0-.035-.065.361.361,0,0,0-.047-.057.385.385,0,0,0-.057-.047.38.38,0,0,0-.065-.035.387.387,0,0,0-.07-.021.373.373,0,0,0-.147,0,.385.385,0,0,0-.07.021.4.4,0,0,0-.065.035.43.43,0,0,0-.057.047.361.361,0,0,0-.047.057.377.377,0,0,0-.056.135.383.383,0,0,0,0,.147.383.383,0,0,0,.021.07.372.372,0,0,0,.035.065.357.357,0,0,0,.047.057.4.4,0,0,0,.057.047.4.4,0,0,0,.065.035.388.388,0,0,0,.07.021.372.372,0,0,0,.073.007.38.38,0,0,0,.074-.007.388.388,0,0,0,.07-.021.38.38,0,0,0,.065-.035.375.375,0,0,0,.1-.1.37.37,0,0,0,.035-.065.38.38,0,0,0,.021-.07.369.369,0,0,0,.007-.073A.374.374,0,0,0,42.122,426.03Z" transform="translate(-41.378 -425.728)" fill="#fff"/>
          </g>
        </g>
      </g>
    </g>
  </g>
</svg>
