<svg xmlns="http://www.w3.org/2000/svg" width="20" height="20" viewBox="0 0 18.705 18.705">
  <g id="pencil" transform="translate(-0.001)">
    <g id="Group_254" data-name="Group 254" transform="translate(0.001)">
      <path id="Path_161" data-name="Path 161" d="M9.353,0a9.352,9.352,0,1,0,9.353,9.352A9.352,9.352,0,0,0,9.353,0ZM13.8,6.73l-.888.888L11.1,5.811l-.686.686L12.225,8.3,7.79,12.739,5.982,10.931l-.686.686L7.1,13.426l-.442.442-.008-.008a.35.35,0,0,1-.223.161L4.744,14.4a.351.351,0,0,1-.418-.419L4.7,12.291a.351.351,0,0,1,.161-.223l-.009-.009,7.137-7.137a.268.268,0,0,1,.379,0L13.8,6.351A.268.268,0,0,1,13.8,6.73Z" transform="translate(-0.001)" fill="#0000ff"/>
    </g>
  </g>
</svg>
