<svg xmlns="http://www.w3.org/2000/svg" width="19.349" height="19.724" viewBox="0 0 19.349 19.724">
  <g id="google" transform="translate(-7.462 -6.985)">
    <path id="Icon_ionic-logo-google" data-name="Icon ionic-logo-google" d="M22.892,11.724l-.1-.422H13.615v3.884H19.1a5.488,5.488,0,0,1-5.368,4.126,6.42,6.42,0,0,1-4.32-1.722,6.168,6.168,0,0,1-1.84-4.354A6.362,6.362,0,0,1,9.376,8.888a6.146,6.146,0,0,1,4.292-1.679,5.6,5.6,0,0,1,3.652,1.423l2.76-2.746a9.766,9.766,0,0,0-6.5-2.5h0A10.051,10.051,0,0,0,6.464,6.275a10.011,10.011,0,0,0-2.808,6.967,9.91,9.91,0,0,0,2.7,6.853,10.3,10.3,0,0,0,7.422,3.011,9.155,9.155,0,0,0,6.668-2.8,9.845,9.845,0,0,0,2.561-6.82A11.356,11.356,0,0,0,22.892,11.724Z" transform="translate(3.806 3.603)" fill="#fff"/>
  </g>
</svg>
