<svg xmlns="http://www.w3.org/2000/svg" width="24.874" height="21.765" viewBox="0 0 24.874 21.765">
  <path id="Icon_awesome-camera" data-name="Icon awesome-camera" d="M24.874,7.691V21.683a2.333,2.333,0,0,1-2.332,2.332H2.332A2.333,2.333,0,0,1,0,21.683V7.691A2.333,2.333,0,0,1,2.332,5.359H6.607l.6-1.6A2.329,2.329,0,0,1,9.386,2.25h6.1a2.329,2.329,0,0,1,2.181,1.511l.6,1.6h4.275A2.333,2.333,0,0,1,24.874,7.691Zm-6.607,7a5.83,5.83,0,1,0-5.83,5.83A5.834,5.834,0,0,0,18.267,14.687Zm-1.555,0a4.275,4.275,0,1,1-4.275-4.275A4.282,4.282,0,0,1,16.712,14.687Z" transform="translate(0 -2.25)" fill="#fff"/>
</svg>
