<svg xmlns="http://www.w3.org/2000/svg" width="12.317" height="11.19" viewBox="0 0 12.317 11.19">
  <path id="path" d="M11.354,5.98A3.12,3.12,0,0,1,13.678,5a3.728,3.728,0,0,1,3.639,4,5.408,5.408,0,0,1-1.959,3.835c-.28.28-1.12,1.036-1.148,1.064-.112.112-.252.224-.392.364-.168.14-.364.308-.532.448-.392.336-.812.644-1.232.952a4.786,4.786,0,0,0-.392.308,1.658,1.658,0,0,0-.168.112.546.546,0,0,1-.644,0,1.659,1.659,0,0,0-.168-.112c-.112-.084-.252-.2-.392-.308-.42-.308-.84-.644-1.232-.952-.2-.168-.364-.308-.532-.448-.14-.112-.252-.252-.392-.364-.056-.028-.9-.784-1.176-1.064A5.3,5.3,0,0,1,5,9,3.728,3.728,0,0,1,8.639,5a3.12,3.12,0,0,1,2.323.98,1.293,1.293,0,0,1,.2.2,1.293,1.293,0,0,1,.2-.2Zm.028,8.818c.392-.308.812-.616,1.176-.924a4.071,4.071,0,0,0,.5-.448,4.305,4.305,0,0,0,.364-.336c.056-.056.9-.812,1.148-1.064A4.37,4.37,0,0,0,16.2,9,2.628,2.628,0,0,0,13.678,6.12a2.205,2.205,0,0,0-1.54.644,2.558,2.558,0,0,0-.364.448c-.056.084-.084.168-.112.2a.567.567,0,0,1-1.036,0,2.173,2.173,0,0,0-.112-.2,2.826,2.826,0,0,0-.364-.448A2.09,2.09,0,0,0,8.639,6.12,2.628,2.628,0,0,0,6.12,9a4.476,4.476,0,0,0,1.624,3.051c.252.252,1.092,1.008,1.148,1.064a4.3,4.3,0,0,0,.364.336c.168.14.336.28.5.448.364.308.784.616,1.176.924.084.056.14.112.224.168a.755.755,0,0,1,.224-.2Z" transform="translate(-5 -5)" fill="blue"/>
</svg>
