<svg xmlns="http://www.w3.org/2000/svg" width="25" height="25" viewBox="0 0 34.95 34.776">
  <g id="map-pin-marked" transform="translate(0 0)">
    <g id="Group_301" data-name="Group 301">
      <g id="Group_300" data-name="Group 300">
        <path id="Path_165" data-name="Path 165" d="M29.694,9.274a9.155,9.155,0,0,0-18.31,0c0,7.244,9.155,17.964,9.155,17.964S29.694,16.481,29.694,9.274Zm-13.67-.547a4.516,4.516,0,1,1,4.516,4.516A4.516,4.516,0,0,1,16.024,8.727Z" transform="translate(-3.065 -0.119)" fill="#fff"/>
        <circle id="Ellipse_34" data-name="Ellipse 34" cx="2.22" cy="2.22" r="2.22" transform="translate(15.254 6.388)" fill="#fff"/>
        <path id="Path_166" data-name="Path 166" d="M22.65,32.87c-.746,1.079-1.446,2.018-2.029,2.772,5.785.348,9.576,1.6,10.987,2.526-1.652,1.09-6.562,2.621-14.132,2.621S5,39.256,3.343,38.168c1.41-.929,5.2-2.177,10.978-2.525-.585-.754-1.285-1.693-2.032-2.771C5.17,33.572,0,35.678,0,38.167c0,3.062,7.825,5.545,17.475,5.545S34.95,41.23,34.95,38.167C34.952,35.677,29.775,33.57,22.65,32.87Z" transform="translate(0 -8.936)" fill="#fff"/>
      </g>
    </g>
  </g>
</svg>
