<svg id="map-pin-marked" xmlns="http://www.w3.org/2000/svg" width="19.443" height="19.346" viewBox="0 0 19.443 19.346">
  <g id="Group_301" data-name="Group 301" transform="translate(0 0)">
    <g id="Group_300" data-name="Group 300">
      <path id="Path_165" data-name="Path 165" d="M21.57,5.212a5.093,5.093,0,0,0-10.186,0c0,4.03,5.093,9.994,5.093,9.994S21.57,9.221,21.57,5.212Zm-7.6-.3A2.512,2.512,0,1,1,16.477,7.42,2.512,2.512,0,0,1,13.965,4.908Z" transform="translate(-6.756 -0.119)" fill="#0b24fa"/>
      <circle id="Ellipse_34" data-name="Ellipse 34" cx="1.235" cy="1.235" r="1.235" transform="translate(8.486 3.554)" fill="#0b24fa"/>
      <path id="Path_166" data-name="Path 166" d="M12.6,32.87c-.415.6-.8,1.122-1.129,1.542a14.276,14.276,0,0,1,6.112,1.405c-.919.606-3.65,1.458-7.862,1.458s-6.942-.853-7.862-1.458a14.263,14.263,0,0,1,6.107-1.4c-.325-.42-.715-.942-1.131-1.542C2.876,33.261,0,34.432,0,35.817,0,37.52,4.353,38.9,9.722,38.9s9.721-1.381,9.721-3.085C19.444,34.432,16.564,33.259,12.6,32.87Z" transform="translate(0 -19.555)" fill="#0b24fa"/>
    </g>
  </g>
</svg>
