<svg xmlns="http://www.w3.org/2000/svg" width="35" height="35" viewBox="0 0 33 31">
  <g id="Group_317" data-name="Group 317" transform="translate(0.024 -0.114)">
    <ellipse id="Ellipse_53" data-name="Ellipse 53" cx="16.5" cy="15.5" rx="16.5" ry="15.5" transform="translate(-0.024 0.114)" fill="#0b24fa"/>
    <g id="home" transform="translate(8.287 5.117)">
      <ellipse id="Ellipse_47" data-name="Ellipse 47" cx="0.284" cy="0.284" rx="0.284" ry="0.284" transform="translate(7.557 7.851)" fill="#fff"/>
      <path id="Path_181" data-name="Path 181" d="M142.645,104.224h6.168a.411.411,0,0,0,.411-.411V99.949l.555.476a.411.411,0,1,0,.535-.625L146,96.1a.411.411,0,0,0-.535,0l-4.318,3.7a.411.411,0,1,0,.535.625l.555-.476v3.864A.411.411,0,0,0,142.645,104.224Zm.411-4.98,2.673-2.291,2.673,2.291V103.4H146.14v-1.645a.411.411,0,1,0-.822,0V103.4h-2.262Z" transform="translate(-137.916 -92.053)" fill="#fff"/>
      <path id="Path_182" data-name="Path 182" d="M73.517,20.928a.411.411,0,0,0,.591,0c2.624-2.709,7.517-8.8,7.517-12.869A8.132,8.132,0,0,0,80.5,3.946a.411.411,0,1,0-.709.417A7.309,7.309,0,0,1,80.8,8.06c0,4.16-5.625,10.5-6.99,11.982-1.366-1.479-6.99-7.822-6.99-11.982A7.212,7.212,0,0,1,73.813.822a6.688,6.688,0,0,1,3.562,1.039.411.411,0,1,0,.438-.7,7.509,7.509,0,0,0-4-1.166A8.028,8.028,0,0,0,66,8.06C66,12.121,70.885,18.211,73.517,20.928Z" transform="translate(-66)" fill="#fff"/>
      <ellipse id="Ellipse_48" data-name="Ellipse 48" cx="0.284" cy="0.568" rx="0.284" ry="0.568" transform="translate(12.669 2.171)" fill="#fff"/>
    </g>
  </g>
</svg>
