<svg xmlns="http://www.w3.org/2000/svg" width="35" height="35" viewBox="0 0 31 31">
  <g id="Group_318" data-name="Group 318" transform="translate(-0.114 -0.114)">
    <circle id="Ellipse_52" data-name="Ellipse 52" cx="15.5" cy="15.5" r="15.5" transform="translate(0.114 0.114)" fill="#0b24fa"/>
    <g id="notification" transform="translate(6.489 8.525)">
      <g id="Group_230" data-name="Group 230" transform="translate(2.872 0)">
        <g id="Group_229" data-name="Group 229">
          <path id="Path_155" data-name="Path 155" d="M90.031,72.675a5.323,5.323,0,0,1-.9-2.962v-3a4.6,4.6,0,0,0-4.066-4.573V61h-1.1v1.14a4.643,4.643,0,0,0-4.037,4.612v2.96a5.324,5.324,0,0,1-.9,2.962l-1.056,1.584h4.994a1.657,1.657,0,0,0,3.125,0h4.994Zm-10,.479a6.424,6.424,0,0,0,1-3.442v-2.96a3.528,3.528,0,0,1,3.486-3.543h.012a3.5,3.5,0,0,1,3.5,3.5v3a6.423,6.423,0,0,0,1,3.442Z" transform="translate(-77.973 -61)" fill="#fff"/>
        </g>
      </g>
      <g id="Group_232" data-name="Group 232" transform="translate(16.512 3.406)">
        <g id="Group_231" data-name="Group 231">
          <path id="Path_156" data-name="Path 156" d="M449.1,153.469l-.781.781a4.236,4.236,0,0,1,.047,5.943l.793.769a5.34,5.34,0,0,0-.059-7.493Z" transform="translate(-448.317 -153.469)" fill="#fff"/>
        </g>
      </g>
      <g id="Group_234" data-name="Group 234" transform="translate(14.949 4.968)">
        <g id="Group_233" data-name="Group 233">
          <path id="Path_157" data-name="Path 157" d="M406.672,195.9l-.781.781a2.026,2.026,0,0,1,.016,2.849l.79.773a3.131,3.131,0,0,0-.024-4.4Z" transform="translate(-405.891 -195.896)" fill="#fff"/>
        </g>
      </g>
      <g id="Group_236" data-name="Group 236" transform="translate(0 3.406)">
        <g id="Group_235" data-name="Group 235">
          <path id="Path_158" data-name="Path 158" d="M2.345,154.25l-.781-.781a5.34,5.34,0,0,0-.059,7.493l.793-.769a4.236,4.236,0,0,1,.047-5.943Z" transform="translate(0 -153.469)" fill="#fff"/>
        </g>
      </g>
      <g id="Group_238" data-name="Group 238" transform="translate(2.21 4.968)">
        <g id="Group_237" data-name="Group 237">
          <path id="Path_159" data-name="Path 159" d="M61.7,196.676l-.781-.781a3.131,3.131,0,0,0-.024,4.4l.79-.773a2.026,2.026,0,0,1,.016-2.849Z" transform="translate(-60 -195.895)" fill="#fff"/>
        </g>
      </g>
    </g>
  </g>
</svg>
