<svg xmlns="http://www.w3.org/2000/svg" width="61.344" height="40" viewBox="0 0 61.344 39.037">
  <path id="people" data-name="people" d="M43.326,24.23a8.365,8.365,0,1,0-8.365-8.365A8.33,8.33,0,0,0,43.326,24.23Zm-22.307,0a8.365,8.365,0,1,0-8.365-8.365A8.33,8.33,0,0,0,21.019,24.23Zm0,5.577c-6.5,0-19.519,3.262-19.519,9.759v6.971H40.537V39.566C40.537,33.069,27.516,29.807,21.019,29.807Zm22.307,0c-.809,0-1.729.056-2.7.139,3.235,2.342,5.493,5.493,5.493,9.62v6.971h16.73V39.566C62.844,33.069,49.823,29.807,43.326,29.807Z" transform="translate(-1.5 -7.5)" fill="#fff"/>
</svg>
