<svg xmlns="http://www.w3.org/2000/svg" width="35" height="35" viewBox="0 0 226 214">
    <g id="Add" data-name="Add Activity" transform="translate(-2528.243 -2087.363)">
        <ellipse id="Ellipse_62" data-name="Ellipse 62" cx="113" cy="107" rx="113" ry="107"
            transform="translate(2528.243 2087.363)" fill="blue" />
        <path id="plus2"
            d="M135.968,61.836H86.223V10.306A10.136,10.136,0,0,0,76.274,0H69.642a10.136,10.136,0,0,0-9.949,10.306v51.53H9.949A10.136,10.136,0,0,0,0,72.142v6.87A10.136,10.136,0,0,0,9.949,89.318H59.693v51.53a10.136,10.136,0,0,0,9.949,10.306h6.632a10.136,10.136,0,0,0,9.949-10.306V89.318h49.744a10.136,10.136,0,0,0,9.949-10.306v-6.87A10.136,10.136,0,0,0,135.968,61.836Zm0,0"
            transform="translate(2568.182 2118.803)" fill="#fff8f8"/>
    </g>
</svg>
