<svg xmlns="http://www.w3.org/2000/svg" width="40" height="40"  viewBox="0 0 45 45">
  <g id="Icon_ionic-md-add-circle-outline" data-name="Icon ionic-md-add-circle-outline" transform="translate(-3.375 -3.375)">
    <path id="Path_213" data-name="Path 213" d="M32.733,23.789H23.789v8.944H19.421V23.789H10.477V19.421h8.944V10.477h4.368v8.944h8.944Z" transform="translate(4.27 4.27)" fill="#0b24fa"/>
    <path id="Path_214" data-name="Path 214" d="M25.875,7.918a17.949,17.949,0,1,1-12.7,5.257,17.882,17.882,0,0,1,12.7-5.257m0-4.543a22.5,22.5,0,1,0,19.01,34.544,22.155,22.155,0,0,0,3.49-12.044,22.5,22.5,0,0,0-22.5-22.5Z" transform="translate(0 0)" fill="#0b24fa"/>
  </g>
</svg>
