<svg xmlns="http://www.w3.org/2000/svg" width="18.764" height="18.765" viewBox="0 0 18.764 18.765">
  <g id="settings-work-tool" transform="translate(-0.003 0)">
    <g id="Group_255" data-name="Group 255" transform="translate(0.003 0)">
      <path id="Path_162" data-name="Path 162" d="M18.708,8.341a.611.611,0,0,0-.6-.462,2.072,2.072,0,0,1-1.418-3.606.521.521,0,0,0,.057-.707,9.284,9.284,0,0,0-1.486-1.5.522.522,0,0,0-.713.058,2.162,2.162,0,0,1-2.34.526A2.084,2.084,0,0,1,10.937.611a.521.521,0,0,0-.46-.548A9.367,9.367,0,0,0,8.366.057.522.522,0,0,0,7.9.594a2.088,2.088,0,0,1-1.285,2,2.168,2.168,0,0,1-2.323-.529.523.523,0,0,0-.708-.06,9.319,9.319,0,0,0-1.518,1.5.522.522,0,0,0,.056.713,2.079,2.079,0,0,1,.525,2.341A2.169,2.169,0,0,1,.608,7.83a.51.51,0,0,0-.542.461,9.4,9.4,0,0,0,0,2.134.621.621,0,0,0,.615.461,2.058,2.058,0,0,1,1.93,1.286,2.086,2.086,0,0,1-.525,2.32.521.521,0,0,0-.057.707A9.318,9.318,0,0,0,3.51,16.7a.522.522,0,0,0,.714-.057,2.159,2.159,0,0,1,2.339-.526,2.081,2.081,0,0,1,1.269,2.036.521.521,0,0,0,.46.548,9.338,9.338,0,0,0,2.111.006.522.522,0,0,0,.464-.537,2.085,2.085,0,0,1,1.284-2,2.165,2.165,0,0,1,2.324.529.524.524,0,0,0,.708.059,9.341,9.341,0,0,0,1.518-1.5.521.521,0,0,0-.056-.713A2.079,2.079,0,0,1,16.12,12.2a2.1,2.1,0,0,1,1.919-1.272l.116,0a.522.522,0,0,0,.549-.46A9.391,9.391,0,0,0,18.708,8.341ZM9.4,12.532A3.13,3.13,0,1,1,12.529,9.4,3.133,3.133,0,0,1,9.4,12.532Z" transform="translate(-0.003 0)" fill="#0000ff" fill-rule="evenodd"/>
    </g>
  </g>
</svg>
