<svg xmlns="http://www.w3.org/2000/svg" width="10.1" height="12.317" viewBox="0 0 10.1 12.317">
  <path id="path" d="M9.872,10.667a1.554,1.554,0,0,1,.056.505,3.092,3.092,0,0,1-.056.505l2.974,2.216a1.949,1.949,0,1,1-.673,1.459,3.091,3.091,0,0,1,.056-.505L9.255,12.631a1.9,1.9,0,0,1-1.291.505,1.964,1.964,0,1,1,0-3.928,1.9,1.9,0,0,1,1.291.505L12.228,7.5a3.834,3.834,0,0,1-.056-.533,1.964,1.964,0,1,1,1.964,1.964,1.9,1.9,0,0,1-1.291-.505L9.872,10.667Zm4.265-2.862a.842.842,0,1,0-.842-.842.827.827,0,0,0,.842.842Zm0,8.417a.842.842,0,1,0-.842-.842.827.827,0,0,0,.842.842ZM7.964,12.014a.842.842,0,1,0-.842-.842.827.827,0,0,0,.842.842Z" transform="translate(-6 -5)" fill="blue"/>
</svg>
