<svg xmlns="http://www.w3.org/2000/svg" width="45" height="45" viewBox="0 0 31 31">
  <g id="support" data-name="support" transform="translate(-0.39 -0.114)">
    <circle id="Ellipse_50" data-name="Ellipse 50" cx="15.5" cy="15.5" r="15.5" transform="translate(0.39 0.114)" fill="#0b24fa"/>
    <g id="support" transform="translate(5.166 5.685)">
      <path id="Path_189" data-name="Path 189" d="M245.443,2.632a.407.407,0,0,0,.407-.407V.407a.407.407,0,1,0-.815,0V2.225A.408.408,0,0,0,245.443,2.632Z" transform="translate(-235.158 0)" fill="#fff"/>
      <path id="Path_190" data-name="Path 190" d="M21.139,92.828l-.72-.718a1.365,1.365,0,0,0-1.615-.23l-1.356-1.355.066-.066a1.414,1.414,0,0,0,0-2,1.4,1.4,0,0,0-.709-.384,1.423,1.423,0,0,0,.056-.4A1.411,1.411,0,0,0,15.739,86.3a1.423,1.423,0,0,0,.056-.4,1.41,1.41,0,0,0-1.122-1.381,1.41,1.41,0,0,0-1.507-1.8l-2.688-.509a1.452,1.452,0,0,0-1.245.166.735.735,0,0,0-.062.064,1.417,1.417,0,0,0-1.487.327,1.4,1.4,0,0,0-.413,1,1.425,1.425,0,0,0,.056.4,1.411,1.411,0,0,0-1.122,1.381,1.421,1.421,0,0,0,.056.4,1.413,1.413,0,0,0-.876,2.18,1.412,1.412,0,0,0-.542,2.336l.066.066L3.553,91.879a1.362,1.362,0,0,0-1.541.267l-.72.718a1.361,1.361,0,0,0,0,1.922l.9.9a.407.407,0,1,0,.576-.577l-.9-.9a.546.546,0,0,1,0-.769l.72-.718a.546.546,0,0,1,.665-.081A.411.411,0,0,0,3.3,92.7a.405.405,0,0,0,.117.081L7.551,96.91a.4.4,0,0,0,.2.2.545.545,0,0,1-.023.744L7,98.572a.547.547,0,0,1-.77,0l-.9-.9a.407.407,0,0,0-.576.576l.9.9a1.364,1.364,0,0,0,1.921,0l.72-.719a1.362,1.362,0,0,0,.191-1.683l1.527-1.525,0,0c.175-.181.662-.147,1.132-.114a5.861,5.861,0,0,0,1.072.007L13.9,96.78a1.362,1.362,0,0,0,.231,1.613l.72.719a1.362,1.362,0,0,0,1.922,0l4.367-4.362a1.361,1.361,0,0,0,0-1.922ZM10.326,83.014l1.768.335-1.058,1.058a2.569,2.569,0,0,1-.634-.461,1.875,1.875,0,0,1-.6-.926h0a.356.356,0,0,1,0-.04A1.381,1.381,0,0,1,10.326,83.014Zm-2.066.332a.6.6,0,0,1,.76-.072,2.914,2.914,0,0,0,.818,1.26,3.017,3.017,0,0,0,1.174.727.6.6,0,0,1-.914.764h0L8.26,84.191a.6.6,0,0,1,0-.845ZM7.2,85.125a.6.6,0,0,1,.847,0L9.522,86.6a.6.6,0,0,1-.848.846h0L7.552,86.326l-.005-.005L7.2,85.97a.6.6,0,0,1,0-.845ZM6.129,86.9a.6.6,0,0,1,.844,0L8.1,88.025a.6.6,0,0,1-.847.844l-.408-.408h0l-.714-.713a.6.6,0,0,1,0-.846Zm-.71,2.136a.6.6,0,0,1,.848,0l.409.408a.6.6,0,0,1-.848.844l-.051-.051,0,0,0,0-.353-.352a.6.6,0,0,1,0-.845Zm8.3,4.631a.407.407,0,0,0-.576,0l-.363.362c-.344.344-.969.3-1.572.259a2.154,2.154,0,0,0-1.772.358l-1.5,1.5L4.186,92.4l1.328-1.326a1.413,1.413,0,0,0,2.151-1.205s0-.007,0-.011h.011a1.409,1.409,0,0,0,1.413-1.411s0-.007,0-.011H9.1a1.408,1.408,0,0,0,1.413-1.422h.011a1.413,1.413,0,0,0,1.206-2.148L12.892,83.7a.6.6,0,0,1,.306-.163l.036-.006a.6.6,0,0,1,.507,1.013l-.355.353,0,0-.408.408a.407.407,0,0,0,.576.577l.356-.355h0l.054-.054a.6.6,0,0,1,.846,0,.6.6,0,0,1,0,.845l-.357.357h0l-.408.407a.407.407,0,0,0,.575.577l.41-.409a.6.6,0,0,1,.846.845l-.711.711a.407.407,0,1,0,.576.576l.348-.349.006-.006a.6.6,0,0,1,.847.845l-.354.354h0l-.562.562a.407.407,0,0,0,.576.577l.275-.275,1.318,1.316-3.753,3.748-1.345-1.343a1.6,1.6,0,0,0,.268-.215l.362-.362a.407.407,0,0,0,0-.576Zm6.841.5L16.2,98.535a.548.548,0,0,1-.77,0l-.72-.719a.545.545,0,0,1,0-.768l4.367-4.362a.548.548,0,0,1,.77,0l.72.718a.546.546,0,0,1,0,.769Z" transform="translate(-0.894 -78.83)" fill="#fff"/>
      <path id="Path_191" data-name="Path 191" d="M83.328,4.923a.407.407,0,0,0,.576-.577L82.419,2.864a.407.407,0,1,0-.576.577Z" transform="translate(-78.453 -2.634)" fill="#fff"/>
      <path id="Path_192" data-name="Path 192" d="M372.059,5.042a.406.406,0,0,0,.288-.119l1.484-1.482a.407.407,0,1,0-.576-.577l-1.484,1.482a.407.407,0,0,0,.288.7Z" transform="translate(-356.651 -2.634)" fill="#fff"/>
      <path id="Path_193" data-name="Path 193" d="M60.047,430.315a.407.407,0,0,0,0,.576h0a.407.407,0,1,0-.006-.577Z" transform="translate(-57.541 -412.788)" fill="#fff"/>
      <path id="Path_194" data-name="Path 194" d="M332.918,332.933a.408.408,0,1,0-.183-.771h0a.407.407,0,0,0,.185.77Z" transform="translate(-319.093 -318.681)" fill="#fff"/>
    </g>
  </g>
</svg>
