<svg xmlns="http://www.w3.org/2000/svg" width="19.908" height="16.179" viewBox="0 0 19.908 16.179">
  <g id="twitter" transform="translate(-7.646 -10.365)">
    <g id="Group_213" data-name="Group 213" transform="translate(7.646 10.365)">
      <path id="Path_150" data-name="Path 150" d="M45.011,35.943a8.149,8.149,0,0,1-2.346.642,4.1,4.1,0,0,0,1.8-2.259,8.177,8.177,0,0,1-2.594.991,4.088,4.088,0,0,0-6.96,3.726,11.594,11.594,0,0,1-8.419-4.268,4.089,4.089,0,0,0,1.264,5.453,4.056,4.056,0,0,1-1.85-.511c0,.017,0,.035,0,.052a4.087,4.087,0,0,0,3.277,4,4.1,4.1,0,0,1-1.844.071,4.089,4.089,0,0,0,3.815,2.836A8.245,8.245,0,0,1,25.1,48.372a11.616,11.616,0,0,0,17.882-9.786c0-.177,0-.353-.012-.528a8.283,8.283,0,0,0,2.038-2.114Z" transform="translate(-25.103 -34.028)" fill="#fff"/>
    </g>
  </g>
</svg>
